<?xml version="1.0" standalone="no"?><!DOCTYPE svg PUBLIC "-//W3C//DTD SVG 1.1//EN" "http://www.w3.org/Graphics/SVG/1.1/DTD/svg11.dtd"><svg t="1679048727509" class="icon" viewBox="0 0 1024 1024" version="1.1" xmlns="http://www.w3.org/2000/svg" p-id="5557" xmlns:xlink="http://www.w3.org/1999/xlink" width="200" height="200"><path d="M896.1 656.8H873c0-0.8 0.2-1.5 0.2-2.3V556c0-36.1-29.5-65.7-65.7-65.7H544.9v-98.5h65.7c36.1 0 65.7-29.5 65.7-65.7v-98.5c0-36.1-29.5-65.7-65.7-65.7h-197c-36.1 0-65.7 29.5-65.7 65.7v98.5c0 36.1 29.5 65.7 65.7 65.7h65.7v98.5H216.6c-36.1 0-65.7 29.5-65.7 65.7v98.5c0 0.8 0.2 1.5 0.2 2.3H128c-35.1 0-63.6 28.5-63.6 63.6v65c0 35.1 28.5 63.6 63.6 63.6h111.4c35.1 0 63.6-28.5 63.6-63.6v-65c0-35.1-28.5-63.6-63.6-63.6h-23.1c0-0.8 0.2-1.5 0.2-2.3V556h262.6v98.5c0 0.8 0.2 1.5 0.2 2.3h-26c-35.1 0-63.6 28.5-63.6 63.6v65c0 35.1 28.5 63.6 63.6 63.6h111.4c35.1 0 63.6-28.5 63.6-63.6v-65c0-35.1-28.5-63.6-63.6-63.6h-20.2c0-0.8 0.2-1.5 0.2-2.3V556h262.6v98.5c0 0.8 0.2 1.5 0.2 2.3h-23.1c-35.1 0-63.6 28.5-63.6 63.6v65c0 35.1 28.5 63.6 63.6 63.6h111.4c35.1 0 63.6-28.5 63.6-63.6v-65c0.3-35.1-28.2-63.6-63.3-63.6z m-654 63.6v65c0 1.4-1.1 2.5-2.5 2.5H128.1c-1.4 0-2.6-1.1-2.6-2.5v-65c0-1.4 1.1-2.5 2.6-2.5h111.4c1.4 0 2.6 1.1 2.6 2.5z m325.3 0v65c0 1.4-1.1 2.5-2.6 2.5H453.5c-1.4 0-2.5-1.1-2.5-2.5v-65c0-1.4 1.1-2.5 2.5-2.5h111.4c1.4 0 2.5 1.1 2.5 2.5zM413.6 326.2v-98.5h197v98.5h-197z m485.1 459.2c0 1.4-1.1 2.5-2.5 2.5H784.7c-1.4 0-2.6-1.1-2.6-2.5v-65c0-1.4 1.1-2.5 2.6-2.5h111.4c1.4 0 2.5 1.1 2.5 2.5v65z" fill="#3E75FF" p-id="5558"></path></svg>