<?xml version="1.0" encoding="utf-8"?>
<!-- Generator: Adobe Illustrator 25.1.0, SVG Export Plug-In . SVG Version: 6.00 Build 0)  -->
<svg version="1.1" id="图层_1" xmlns="http://www.w3.org/2000/svg" xmlns:xlink="http://www.w3.org/1999/xlink" x="0px" y="0px"
	 viewBox="0 0 1680 240" style="enable-background:new 0 0 1680 240;" xml:space="preserve">
<style type="text/css">
	.st0{fill:url(#SVGID_1_);}
	.st1{clip-path:url(#SVGID_3_);}
	.st2{fill:url(#SVGID_4_);}
	.st3{opacity:0.6;fill:url(#SVGID_5_);enable-background:new    ;}
	.st4{opacity:0.5;fill:url(#SVGID_6_);enable-background:new    ;}
	.st5{fill:#3F3D56;}
	.st6{fill:#5B62E8;}
	.st7{fill:#F2F2F2;}
	.st8{fill:#CCCCCC;}
	.st9{fill:#FFFFFF;}
	.st10{fill:#6C63FF;}
</style>
<linearGradient id="SVGID_1_" gradientUnits="userSpaceOnUse" x1="826.4282" y1="603.5551" x2="854.1491" y2="845.4832" gradientTransform="matrix(1 0 0 1 0 -602)">
	<stop  offset="0" style="stop-color:#69C384"/>
	<stop  offset="1" style="stop-color:#49B17F"/>
</linearGradient>
<path class="st0" d="M0,0h1680v240H0V0z"/>
<g>
	<defs>
		<rect id="SVGID_2_" width="1680" height="240"/>
	</defs>
	<clipPath id="SVGID_3_">
		<use xlink:href="#SVGID_2_"  style="overflow:visible;"/>
	</clipPath>
	<g class="st1">
		
			<linearGradient id="SVGID_4_" gradientUnits="userSpaceOnUse" x1="291.2834" y1="196.5808" x2="310.3744" y2="853.6256" gradientTransform="matrix(1 0 0 1 0 -602)">
			<stop  offset="0" style="stop-color:#23A082"/>
			<stop  offset="1" style="stop-color:#32A054;stop-opacity:0.2"/>
		</linearGradient>
		<circle class="st2" cx="294.3" cy="-301.6" r="498"/>
		
			<linearGradient id="SVGID_5_" gradientUnits="userSpaceOnUse" x1="734.3424" y1="1277.418" x2="1734.4275" y2="813.1555" gradientTransform="matrix(1 0 0 1 0 -602)">
			<stop  offset="0" style="stop-color:#208E74"/>
			<stop  offset="1" style="stop-color:#23A049;stop-opacity:0"/>
		</linearGradient>
		<circle class="st3" cx="1272.7" cy="425.5" r="537.7"/>
		
			<linearGradient id="SVGID_6_" gradientUnits="userSpaceOnUse" x1="1366.8672" y1="339.8641" x2="1592.0972" y2="716.0851" gradientTransform="matrix(1 0 0 1 0 -602)">
			<stop  offset="0" style="stop-color:#15866B"/>
			<stop  offset="1" style="stop-color:#23A049;stop-opacity:0"/>
		</linearGradient>
		<circle class="st4" cx="1460.4" cy="-105.9" r="276.8"/>
	</g>
</g>
<g id="图层_1_1_">
	<path class="st5" d="M964.2,233.7c1.5,2.4,3.6,4.2,6.2,5.3c1.4-5.7-1.7-11.5-7.2-13.4C962.7,228.4,963,231.2,964.2,233.7z"/>
	<path class="st6" d="M965.6,232.5c2.3,1.6,4.1,3.8,5,6.5c-5.7,1.2-11.4-2.2-13.1-7.9C960.3,230.7,963.1,231.2,965.6,232.5z"/>
	<path class="st7" d="M1154,172.4c0,29.6-17.6,39.9-39.2,39.9s-39.2-10.3-39.2-39.9s39.2-67.1,39.2-67.1S1154,142.9,1154,172.4z"/>
	<polygon class="st5" points="1113.3,207.8 1113.7,183 1130.4,152.4 1113.7,179.2 1113.9,168 1125.5,145.9 1114,165.1 1114,165.1 
		1114.3,145.1 1126.6,127.5 1114.3,142 1114.6,105.3 1113.3,153.8 1113.4,151.8 1100.8,132.6 1113.2,155.7 1112,178 1112,177.4 
		1097.5,157.2 1111.9,179.5 1111.8,182.3 1111.8,182.3 1111.8,182.6 1108.8,239.2 1112.8,239.2 1113.2,210 1127.6,187.7 	"/>
	<path class="st7" d="M1263.7,172.4c0,29.6-17.6,39.9-39.2,39.9c-21.7,0-39.2-10.3-39.2-39.9s39.2-67.1,39.2-67.1
		S1263.7,142.9,1263.7,172.4z"/>
	<polygon class="st5" points="1223,207.8 1223.4,183 1240.1,152.4 1223.5,179.2 1223.6,168 1235.2,145.9 1223.7,165.1 1223.7,165.1 
		1224,145.1 1236.4,127.5 1224.1,142 1224.3,105.3 1223,153.8 1223.1,151.8 1210.6,132.6 1222.9,155.7 1221.7,178 1221.7,177.4 
		1207.2,157.2 1221.6,179.5 1221.5,182.3 1221.5,182.3 1221.5,182.6 1218.5,239.2 1222.5,239.2 1223,210 1237.3,187.7 	"/>
	<polygon class="st5" points="968.7,209.4 966.5,205.7 987,188.1 1039.9,188.1 1039.9,193.2 1020.8,213.8 998.8,218.2 	"/>
	<polygon class="st6" points="1049,198.4 1049,186.9 1042.1,186.9 1042.1,190.5 1039.9,188.1 1022.3,205.7 1019.4,208.6 
		1015.7,223.3 1022.3,239.5 1056.1,239.5 1056.1,206.4 	"/>
	<rect x="966.5" y="205.7" class="st7" width="55.8" height="33.8"/>
	<rect x="1002.8" y="216.3" class="st5" width="11.8" height="10.3"/>
	<rect x="987.8" y="216" class="st8" width="10.3" height="23.5"/>
	<polygon class="st5" points="976,219.6 976,216 971.6,216 971.6,219.6 975.7,219.6 	"/>
	<polygon class="st5" points="975.7,222.6 971.6,222.6 971.6,226.2 976,226.2 976,222.6 	"/>
	<rect x="979" y="216" class="st5" width="4.4" height="3.7"/>
	<rect x="979" y="222.6" class="st5" width="4.4" height="3.7"/>
	<polygon class="st5" points="1038.1,220 1038.1,216.3 1033.7,216.3 1033.7,220 1037.7,220 	"/>
	<polygon class="st5" points="1037.7,222.9 1033.7,222.9 1033.7,226.6 1038.1,226.6 1038.1,222.9 	"/>
	<rect x="1041" y="216.3" class="st5" width="4.4" height="3.7"/>
	<rect x="1041" y="222.9" class="st5" width="4.4" height="3.7"/>
	<polygon class="st5" points="1074.7,209.3 1072.5,205.7 1093,188 1145.9,188 1145.9,193.2 1126.8,213.7 1104.8,218.1 	"/>
	<polygon class="st6" points="1155,198.4 1155,186.9 1148.1,186.9 1148.1,190.5 1145.9,188 1128.3,205.7 1125.3,208.6 1121.7,223.3 
		1128.3,239.4 1162.1,239.4 1162.1,206.4 	"/>
	<rect x="1072.5" y="205.7" class="st7" width="55.8" height="33.8"/>
	<rect x="1108.8" y="216.3" class="st5" width="11.8" height="10.3"/>
	<rect x="1093.8" y="216" class="st8" width="10.3" height="23.5"/>
	<polygon class="st5" points="1082,219.6 1082,216 1077.6,216 1077.6,219.6 1081.6,219.6 	"/>
	<polygon class="st5" points="1081.6,222.6 1077.6,222.6 1077.6,226.2 1082,226.2 1082,222.6 	"/>
	<rect x="1084.9" y="216" class="st5" width="4.4" height="3.7"/>
	<rect x="1084.9" y="222.6" class="st5" width="4.4" height="3.7"/>
	<polygon class="st5" points="1144.1,220 1144.1,216.3 1139.7,216.3 1139.7,220 1143.7,220 	"/>
	<polygon class="st5" points="1143.7,222.9 1139.7,222.9 1139.7,226.6 1144.1,226.6 1144.1,222.9 	"/>
	<rect x="1147" y="216.3" class="st5" width="4.4" height="3.7"/>
	<rect x="1147" y="222.9" class="st5" width="4.4" height="3.7"/>
	<polygon class="st5" points="1177.5,209.3 1175.3,205.7 1195.8,188 1248.7,188 1248.7,193.2 1229.6,213.7 1207.6,218.1 	"/>
	<polygon class="st6" points="1257.8,198.4 1257.8,186.9 1250.9,186.9 1250.9,190.5 1248.7,188 1231.1,205.7 1228.2,208.6 
		1224.5,223.3 1231.1,239.4 1264.9,239.4 1264.9,206.4 	"/>
	<rect x="1175.3" y="205.7" class="st7" width="55.8" height="33.8"/>
	<rect x="1211.6" y="216.3" class="st5" width="11.8" height="10.3"/>
	<rect x="1196.6" y="216" class="st8" width="10.3" height="23.5"/>
	<polygon class="st5" points="1184.8,219.6 1184.8,216 1180.4,216 1180.4,219.6 1184.4,219.6 	"/>
	<polygon class="st5" points="1184.4,222.6 1180.4,222.6 1180.4,226.2 1184.8,226.2 1184.8,222.6 	"/>
	<rect x="1187.7" y="216" class="st5" width="4.4" height="3.7"/>
	<rect x="1187.7" y="222.6" class="st5" width="4.4" height="3.7"/>
	<polygon class="st5" points="1246.9,220 1246.9,216.3 1242.5,216.3 1242.5,220 1246.5,220 	"/>
	<polygon class="st5" points="1246.5,222.9 1242.5,222.9 1242.5,226.6 1246.9,226.6 1246.9,222.9 	"/>
	<rect x="1249.8" y="216.3" class="st5" width="4.4" height="3.7"/>
	<rect x="1249.8" y="222.9" class="st5" width="4.4" height="3.7"/>
	<path class="st7" d="M722.5,236.6v-45.2c0-0.7,0.4-1.4,1-1.7l33.8-13.9c2.6-1.3,5.6-1.3,8.1,0l23,13.9c0.6,0.3,1,1,1,1.7v45.2
		c0.1,1.8-1.3,3.2-3,3.3l0,0h-60.9C723.7,239.8,722.4,238.3,722.5,236.6z"/>
	<path class="st6" d="M731.9,237.5v-31.6c0-0.5,0.4-1,0.9-1.2l24.4-9.7c2.2-0.9,4.7-0.9,7,0l24.3,9.7c0.5,0.2,0.8,0.7,0.9,1.2v31.6
		c-0.1,1.4-1.2,2.4-2.6,2.3h-52.2C733.1,239.9,732,238.9,731.9,237.5L731.9,237.5z"/>
	<ellipse class="st7" cx="814.6" cy="214.7" rx="9.7" ry="12.1"/>
	<polygon class="st8" points="815.1,239.8 814.1,239.8 814.6,212.3 814.6,212.3 	"/>
	<path class="st8" d="M813.3,230.4l1.4,0.7l-0.2,0.4l-1.4-0.7c-0.1-0.1-0.2-0.2-0.1-0.3l0,0C813,230.4,813.1,230.3,813.3,230.4
		L813.3,230.4z"/>
	<ellipse class="st7" cx="842.5" cy="214.7" rx="9.7" ry="12.1"/>
	<path class="st8" d="M840.9,231.3l1.2,0.6l-0.1,7.9h1l-0.5-27.5l0,0l-0.3,19.1l-1-0.5c-0.1-0.1-0.3,0-0.3,0.1l0,0
		C840.8,231,840.8,231.2,840.9,231.3C840.9,231.2,840.9,231.3,840.9,231.3z"/>
	<path class="st6" d="M840.9,208.1c0,8.5-5.5,15.3-12.3,15.3s-12.3-6.9-12.3-15.3s5.5-21.3,12.3-21.3S840.9,199.5,840.9,208.1z"/>
	<path class="st5" d="M826.5,228.6c-0.1,0.1,0,0.3,0.1,0.4l0,0l1.5,0.8l-0.2,10h1.3l-0.6-34.8l0,0l-0.4,24.2l-1.2-0.7l0,0
		C826.7,228.4,826.5,228.4,826.5,228.6L826.5,228.6L826.5,228.6z"/>
	<path class="st9" d="M784.2,218.1v-3.3c0-0.8-0.6-1.6-1.5-1.6c-0.1,0-0.1,0-0.2,0h-8.3c-0.8,0-1.5,0.7-1.5,1.5v0.1v3.3H784.2z"/>
	<path class="st9" d="M772.8,218.6v5.1c0,0.8,0.7,1.5,1.5,1.5h8.3c0.8,0,1.6-0.6,1.6-1.5v-0.1v-5.1h-11.4V218.6z"/>
	<path class="st5" d="M732.7,209.4c-1.9,0-3.5-1.5-3.5-3.5l0,0c0-1.4,0.9-2.7,2.3-3.3l27.1-9.9c1.5-0.5,3.1-0.5,4.6,0l27.1,9.9
		c1.4,0.5,2.3,1.8,2.3,3.3l0,0c0,0.4-0.1,0.8-0.2,1.2c-0.7,1.8-2.6,2.7-4.4,2.1l0,0l-24.8-9.1c-1.5-0.5-3.1-0.5-4.6,0l-24.8,9.1
		C733.5,209.3,733.1,209.4,732.7,209.4z"/>
	<path class="st5" d="M754.3,237.3v-16c0-1.5,1.2-2.6,2.6-2.7l0,0h6.6c1.5,0,2.7,1.2,2.7,2.7l0,0v16c0,1.5-1.2,2.7-2.7,2.7l0,0H757
		C755.5,240,754.3,238.8,754.3,237.3C754.3,237.4,754.3,237.4,754.3,237.3z M757,219.1c-1.2,0-2.2,1-2.2,2.2l0,0v16
		c0,1.2,1,2.2,2.2,2.2h6.6c1.2,0,2.2-1,2.2-2.2v-16c0-1.2-1-2.2-2.2-2.2l0,0H757z"/>
	<path class="st9" d="M765.9,184.6c-0.2-2.6-2.5-4.6-5.2-4.4c-2.3,0.2-4.2,2-4.4,4.4H765.9z"/>
	<path class="st9" d="M756.3,185.1c0,2.6,2.1,4.8,4.8,4.8c2.6,0,4.8-2.1,4.8-4.8H756.3z"/>
	<path class="st5" d="M755.6,188.9c0-0.8,0.7-1.4,1.4-1.5h8c0.8,0.1,1.4,0.8,1.3,1.6c-0.1,0.7-0.6,1.2-1.3,1.3h-8
		C756.3,190.4,755.6,189.7,755.6,188.9L755.6,188.9z"/>
	<path class="st8" d="M772.9,223.7L772.9,223.7c-0.7,0.1-1.2,0.7-1.2,1.4c0.1,0.6,0.5,1.1,1.2,1.2h11.3c0.7-0.1,1.2-0.7,1.2-1.4
		c-0.1-0.6-0.5-1.1-1.2-1.2H772.9z"/>
	<path class="st9" d="M737.6,218.6v5.1c0,0.8,0.7,1.5,1.5,1.5h8.2c0.8,0,1.5-0.7,1.5-1.5v-5.1H737.6z"/>
	<path class="st9" d="M749.1,218.1v-3.3c0-0.8-0.6-1.6-1.5-1.6h-0.1h-8.2c-0.8,0-1.5,0.7-1.5,1.5v0.1v3.3H749.1z"/>
	<circle class="st5" cx="756.3" cy="228.9" r="0.9"/>
	<polygon class="st5" points="784.9,223.7 785.1,223.6 788,229.1 791.5,223.6 791.7,223.7 788,229.5 	"/>
	<path class="st5" d="M783.1,223.7c0,1,0.8,1.9,1.9,1.9h8.8v14.2c3.8,0,0,0,3.8,0v-14.2h0.9c1,0,1.9-0.8,1.9-1.9
		c0-1-0.8-1.9-1.9-1.9h-0.9v-0.2l0,0c0-1-0.8-1.9-1.9-1.9l0,0c-1,0-1.9,0.8-1.9,1.9v0.2h-8.9C783.9,221.9,783.1,222.7,783.1,223.7z"
		/>
	<circle class="st9" cx="795.7" cy="223.7" r="0.7"/>
	<path class="st8" d="M782.4,231.7V229c0-0.8,0.6-1.4,1.4-1.4l0,0h8.2c0.8,0,1.4,0.6,1.4,1.4l0,0v2.7c0,0.8-0.6,1.4-1.4,1.4l0,0
		h-8.2C783,233.1,782.4,232.5,782.4,231.7L782.4,231.7z"/>
	<path class="st10" d="M791.1,230.3L791.1,230.3c0,0.3-0.2,0.6-0.6,0.6l0,0h-5.2c-0.3,0-0.6-0.2-0.6-0.6l0,0c0-0.3,0.3-0.6,0.6-0.6
		h5.2C790.8,229.7,791.1,230,791.1,230.3z"/>
	<path class="st8" d="M736.3,225c0-0.8,0.6-1.4,1.4-1.4l0,0H749c0.8,0,1.4,0.6,1.4,1.4c0,0.8-0.6,1.4-1.4,1.4h-11.3
		C737,226.4,736.3,225.8,736.3,225z"/>
	<path class="st5" d="M722.6,179.6c0-5.5,4.5-10,10-10l0,0h26.6c0,8.4-21.7,11.2-28.3,22.9c-5.6,0.3-8.3,0.5-8.3,0.5V179.6z"/>
	<path class="st7" d="M741,172.6c-0.1,0-0.2,0.1-0.2,0.2l0,0v7.6c0,0.1,0.1,0.2,0.2,0.2l0,0h4.7c0.1,0,0.2-0.1,0.2-0.2v-7.7
		c0-0.1-0.1-0.2-0.2-0.2L741,172.6z"/>
	<path class="st5" d="M731.4,192.5c-1.9,0-3.5-1.6-3.5-3.5l0,0c0-1.4,0.9-2.7,2.3-3.2l27.1-15.8c1.5-0.5,3.1-0.5,4.6,0l27.1,15.8
		c1.4,0.5,2.3,1.8,2.3,3.2l0,0c0,0.4-0.1,0.8-0.2,1.2c-0.6,1.8-2.6,2.7-4.4,2.1l0,0l-24.8-14.9c-1.5-0.5-3.1-0.5-4.6,0l-24.8,14.9
		C732.2,192.4,731.8,192.5,731.4,192.5z"/>
	<path class="st6" d="M675.4,207.7c0,8.5-5.5,15.3-12.3,15.3s-12.3-6.9-12.3-15.3s5.5-21.3,12.3-21.3S675.4,199.3,675.4,207.7z"/>
	<path class="st5" d="M661,228.3c-0.1,0.1,0,0.3,0.1,0.4l1.5,0.8l-0.2,10h1.3l-0.6-34.8l0,0l-0.4,24.1l-1.2-0.6l0,0
		C661.4,228.1,661.2,228.1,661,228.3L661,228.3z"/>
	<ellipse class="st7" cx="923.3" cy="214.4" rx="9.7" ry="12.1"/>
	<polygon class="st8" points="923.8,239.5 922.7,239.5 923.2,212 923.3,212 	"/>
	<path class="st6" d="M917.1,207.7c0,8.5-5.5,15.3-12.3,15.3s-12.3-6.9-12.3-15.3s5.5-21.3,12.3-21.3
		C911.6,186.5,917.1,199.3,917.1,207.7z"/>
	<path class="st5" d="M902.7,228.3c-0.1,0.1,0,0.3,0.1,0.4l1.5,0.8l-0.2,10h1.3l-0.6-34.8l0,0l-0.4,24.1l-1.2-0.6l0,0
		C903,228.1,902.8,228.1,902.7,228.3L902.7,228.3z"/>
	<ellipse class="st7" cx="676.3" cy="214.4" rx="9.7" ry="12.1"/>
	<polygon class="st8" points="676.8,239.5 675.8,239.5 676.3,212 676.3,212 	"/>
	<path class="st6" d="M1106.1,212c0,7.3-4.8,13.3-10.6,13.3c-5.9,0-10.6-6-10.6-13.3s4.8-18.4,10.6-18.4S1106.1,204.7,1106.1,212z"
		/>
	<path class="st5" d="M1093.6,229.8c-0.1,0.1,0,0.3,0.1,0.4l1.3,0.7l-0.2,8.6h1.1l-0.6-30.1l0,0l-0.4,20.9l-1.1-0.6l0,0
		C1093.9,229.6,1093.7,229.7,1093.6,229.8L1093.6,229.8z"/>
	<path class="st6" d="M1082.3,221.5c0,4.8-3.1,8.7-7,8.7s-7-3.9-7-8.7s3.1-12,7-12C1079.3,209.5,1082.3,216.7,1082.3,221.5z"/>
	<path class="st5" d="M1074.2,233.1c-0.1,0.1-0.1,0.2,0,0.2l0.8,0.4v5.6h0.7l-0.4-19.7l0,0l-0.2,13.7l-0.7-0.4l0,0
		C1074.3,233,1074.2,233,1074.2,233.1L1074.2,233.1z"/>
	<path class="st6" d="M1187.3,221.5c0,4.8-3.1,8.7-7,8.7s-7-3.9-7-8.7s3.1-12,7-12C1184.2,209.5,1187.3,216.7,1187.3,221.5z"/>
	<path class="st5" d="M1179.1,233.1c0,0.1,0,0.2,0.1,0.2l0,0l0.8,0.4l-0.1,5.6h0.7l-0.4-19.7l0,0l-0.2,13.7l-0.7-0.4l0,0
		C1179.3,233,1179.2,233,1179.1,233.1L1179.1,233.1z"/>
	<path class="st6" d="M1301.8,213.2c0,7-4.6,12.7-10.2,12.7s-10.2-5.7-10.2-12.7s4.6-17.6,10.2-17.6S1301.8,206.2,1301.8,213.2z"/>
	<path class="st5" d="M1289.8,230.2c-0.1,0.1,0,0.3,0.1,0.3l0,0l1.2,0.7l-0.1,8.3h1.1l-0.5-28.8l0,0l-0.4,20l-1-0.5l0,0
		C1290.1,230,1289.9,230.1,1289.8,230.2C1289.9,230.2,1289.9,230.2,1289.8,230.2L1289.8,230.2z"/>
</g>
</svg>
