<?xml version="1.0" standalone="no"?><!DOCTYPE svg PUBLIC "-//W3C//DTD SVG 1.1//EN" "http://www.w3.org/Graphics/SVG/1.1/DTD/svg11.dtd"><svg t="1679048810391" class="icon" viewBox="0 0 1024 1024" version="1.1" xmlns="http://www.w3.org/2000/svg" p-id="8783" xmlns:xlink="http://www.w3.org/1999/xlink" width="200" height="200"><path d="M413.911579 591.225263a37.079579 37.079579 0 0 1-8.623158-15.090526c-2.155789-6.467368-3.772632-15.629474-5.928421-27.486316l-43.115789-259.772632c-1.616842-8.623158-2.694737-18.324211-4.311579-28.56421-1.616842-10.778947-2.694737-22.635789-3.233685-35.031579l-25.869473 3.233684c-3.772632 6.467368-8.084211 12.934737-12.39579 18.863158-4.850526 5.928421-9.162105 12.934737-14.012631 21.018947l-157.372632 269.473685c-8.084211 13.473684-15.090526 24.252632-21.018947 32.336842-5.928421 8.084211-11.317895 14.551579-17.246316 18.863158-5.928421 4.850526-11.856842 8.084211-18.863158 9.701052-7.006316 1.616842-15.629474 3.233684-25.869474 3.772632l-2.155789 13.473684c9.701053 0 19.941053 0 30.72-0.538947 10.778947 0 20.48-0.538947 30.72-0.538948 11.856842 0 23.713684 0 36.109474 0.538948 12.395789 0.538947 23.174737 0.538947 32.875789 0.538947l3.772632-14.551579c-16.707368-0.538947-28.025263-2.694737-33.953685-5.389474-5.928421-2.694737-8.623158-7.545263-7.006315-14.551578 0.538947-3.772632 4.850526-13.473684 12.934736-28.564211l44.193685-78.147368h132.581052l13.473684 84.614736c0.538947 4.850526 1.077895 9.162105 1.616843 12.934737 0.538947 3.772632 0.538947 7.006316 0 10.24-1.077895 7.006316-5.389474 11.856842-11.856843 14.012632-7.006316 2.694737-17.785263 4.311579-32.875789 5.389474l-1.077895 13.473684c11.317895 0 22.635789 0 33.953684-0.538948 11.317895 0 22.635789-0.538947 33.953685-0.538947 13.473684 0 26.947368 0 40.421052 0.538947s25.330526 0.538947 36.648421 0.538948l3.772632-14.551579a132.581053 132.581053 0 0 1-24.791579-3.233684 26.354526 26.354526 0 0 1-16.168421-6.467369zM217.195789 452.176842L307.2 294.804211h1.077895l24.252631 157.372631H217.195789z m469.962106-29.103158c3.772632-4.850526 7.545263-8.623158 11.856842-11.317895 4.311579-2.694737 8.623158-4.850526 13.473684-5.928421 4.850526-1.077895 11.317895-2.694737 19.941053-3.772631l1.616842-12.934737c-6.467368 0-13.473684 0-20.48 0.538947-7.006316 0-15.090526 0.538947-24.791579 0.538948-12.395789 0-22.096842 0-30.181053-0.538948-8.084211 0-16.168421-0.538947-24.252631-0.538947l-3.233685 13.473684c11.856842 0.538947 19.941053 2.155789 24.252632 4.311579 4.311579 2.155789 5.928421 5.928421 5.389474 9.701053-0.538947 2.155789-1.077895 4.311579-2.694737 7.545263s-3.233684 5.928421-4.850526 9.162105l-75.991579 127.730527-28.564211-126.652632a22.689684 22.689684 0 0 1-2.155789-9.701053 17.623579 17.623579 0 0 1 0-7.545263c0.538947-4.311579 3.233684-7.545263 8.08421-9.701052 4.311579-1.616842 12.395789-3.233684 23.174737-4.850527l1.616842-12.934737c-7.545263 0-15.629474 0-24.791579 0.538948-8.623158 0-18.324211 0.538947-28.56421 0.538947-11.856842 0-23.174737 0-33.953685-0.538947-10.778947 0-20.48-0.538947-29.103158-0.538948l-3.772631 14.551579c7.545263 0.538947 14.012632 1.077895 18.32421 2.15579 4.850526 1.077895 8.623158 2.694737 11.856843 5.389473s5.389474 6.467368 7.545263 11.317895 3.772632 11.317895 5.928421 18.863158c7.545263 29.642105 14.551579 59.284211 22.096842 88.926316 7.006316 29.642105 13.473684 60.362105 19.402105 92.698947l18.324211-1.616842c10.778947-18.863158 22.096842-37.726316 32.336842-55.511579 10.778947-17.785263 20.48-34.492632 30.181052-49.583158 9.701053-15.629474 18.324211-29.642105 26.408421-42.037894 8.084211-12.934737 15.629474-23.713684 22.096843-32.87579 4.850526-7.545263 9.701053-14.012632 13.473684-18.863158zM970.105263 398.282105l-2.155789-3.233684-61.44 4.311579c-1.077895 0-3.233684 0-6.467369 0.538947-3.233684 0-6.467368-0.538947-8.623158-1.077894-2.155789-0.538947-4.850526-2.155789-7.545263-3.772632-14.012632-9.162105-31.258947-13.473684-52.277895-13.473684-13.473684 0-26.408421 2.155789-38.80421 7.006316-12.934737 4.850526-24.252632 11.317895-35.031579 19.941052s-19.941053 18.324211-26.947368 30.181053c-7.545263 11.317895-12.395789 23.713684-14.551579 37.187368-6.467368 35.570526 3.772632 60.901053 30.72 75.991579-3.772632 2.694737-8.623158 6.467368-14.012632 10.24s-10.778947 8.084211-15.629474 12.934737c-4.850526 4.850526-9.701053 9.701053-13.473684 14.551579-3.772632 4.850526-6.467368 9.701053-7.006316 14.551579-1.616842 10.24 0.538947 18.324211 7.545264 24.791579 6.467368 6.467368 15.090526 11.856842 25.330526 16.168421-7.545263 4.850526-15.629474 9.701053-23.174737 15.090526-8.084211 5.389474-15.090526 11.317895-21.557895 17.246316-6.467368 6.467368-12.395789 13.473684-17.246316 21.018947s-8.084211 15.629474-9.701052 24.791579c-2.155789 12.934737-1.077895 23.713684 3.233684 33.414737 4.311579 9.162105 11.317895 17.246316 19.941053 23.713684s18.863158 10.778947 30.181052 14.012632c11.317895 3.233684 23.174737 4.311579 34.492632 4.311579 22.096842 0 42.576842-3.233684 62.517895-9.162105s36.648421-14.551579 52.277894-25.330527c15.090526-10.778947 27.486316-23.713684 37.726316-38.265263 10.24-14.551579 16.707368-30.181053 19.402105-46.888421 2.694737-14.012632 1.616842-25.330526-2.155789-33.953684a41.714526 41.714526 0 0 0-17.246316-21.018947c-7.545263-5.389474-16.707368-8.623158-26.947368-10.778948s-20.48-3.233684-31.258948-3.233684c-9.701053 0-20.48 0-31.797894 0.538947-11.317895 0.538947-22.096842 0.538947-32.336842 0.538948-3.772632 0-8.084211-0.538947-12.39579-1.077895a47.319579 47.319579 0 0 1-12.395789-3.772632c-3.772632-1.616842-7.006316-4.311579-9.162106-7.006315s-3.233684-5.928421-2.694737-9.701053c1.077895-4.850526 3.772632-10.24 9.162106-16.168421 4.850526-5.928421 10.778947-10.24 17.785263-12.934737 11.317895 2.694737 22.096842 3.772632 32.336842 3.772632 11.856842 0 23.713684-2.155789 36.648421-5.928421 12.934737-4.311579 24.791579-10.24 36.109474-18.324211 11.317895-8.084211 21.018947-18.324211 29.642105-30.181052 8.084211-11.856842 14.012632-25.869474 16.707368-41.498948 3.233684-16.707368 0.538947-32.336842-8.08421-46.349474h56.050526l4.311579-23.713684z m-226.357895 257.077895c3.233684-1.616842 6.467368-2.694737 10.778948-3.772632 3.772632-0.538947 8.623158-1.077895 14.551579-1.616842h29.642105c12.395789 0 22.635789 0.538947 31.797895 1.077895 9.162105 0.538947 17.246316 2.694737 24.252631 5.928421 8.623158 3.772632 14.012632 9.162105 17.785263 16.707369s4.311579 16.707368 2.15579 28.025263c-2.155789 12.395789-6.467368 22.635789-12.39579 31.258947-5.928421 8.623158-13.473684 16.168421-22.635789 21.557895s-18.863158 9.701053-30.181053 12.395789a147.132632 147.132632 0 0 1-63.595789 0.538948c-9.701053-2.155789-18.324211-5.389474-25.869474-10.24a51.038316 51.038316 0 0 1-17.246316-18.324211 45.433263 45.433263 0 0 1-3.233684-27.486316c1.616842-9.162105 5.389474-18.324211 10.778948-26.947368 5.389474-8.623158 12.934737-16.168421 22.635789-23.174737 4.311579-2.155789 7.545263-4.311579 10.778947-5.928421z m122.341053-175.157895c-1.616842 7.545263-3.772632 15.090526-7.006316 23.174737-3.233684 8.084211-7.545263 15.090526-12.395789 21.557895s-10.778947 11.317895-17.785263 15.629474c-7.006316 3.772632-14.551579 5.928421-23.174737 5.928421-10.24 0-18.324211-2.694737-24.252632-7.545264a42.145684 42.145684 0 0 1-13.473684-19.402105c-3.233684-8.084211-4.850526-16.707368-4.850526-26.408421-0.538947-9.701053 0-18.863158 1.616842-28.025263 1.616842-8.084211 3.772632-15.629474 7.006316-23.713684 3.233684-8.084211 7.006316-15.090526 11.856842-21.018948a53.194105 53.194105 0 0 1 40.96-21.018947c10.24 0 18.863158 2.155789 24.791579 7.006316 5.928421 4.850526 10.778947 10.778947 14.012631 18.863158 3.233684 7.545263 4.850526 16.168421 4.850527 25.869473s-0.538947 19.402105-2.15579 29.103158z" fill="#1296db" p-id="8784"></path></svg>