<svg viewBox="0 0 1620 1028" xmlns="http://www.w3.org/2000/svg"><g id="a"></g><g id="b"><g id="c"><g><path fill="#ebf3fa" d="M116.15,1026.15s-201.79-189.34-73.41-412.1c128.38-222.76,300.8-110.74,292.45-370.01C326.84-15.23,731.71-37.51,860.59,37.67c128.87,75.18,128.1,165.72,394.15,135.77,266.05-29.96,316.87,219.77,247.66,347.05-98.2,180.58,272.56,150.8,38.94,505.67H116.15Z"></path><g opacity=".5"><path fill="#759be0" d="M884.39,538.64l-38.46,457.02s-4.03,27.7,16.59,27.75c33.9,.08,168.75,0,168.75,0,0,0-25.52-5.77-25.21-18.74,.36-15.29,44.95-470.36,44.95-470.36l-166.62,4.33Z"></path><path fill="#aec3ff" d="M1042.21,1015.12c-6.67,.02-135.46,.42-168.48,0-14.39-.18-16.91-12.79-17.03-20.94-.06-3.91,.44-6.8,.44-6.8l1-11.88,2.55-30.28,2.25-26.75,2.89-34.37,2.44-29.01,27.33-324.75,166.62-4.32s-18.78,190.44-32.06,329.07c-1.48,15.44-2.89,30.26-4.2,44.08-.42,4.41-.83,8.73-1.23,12.93-1.23,13.12-2.36,25.16-3.34,35.79-.52,5.6-.99,10.81-1.42,15.58-1.7,18.7-2.69,30.63-2.7,32.9,0,1.32,.11,2.55,.32,3.7,2.74,14.57,22.11,15.04,24.61,15.04Z"></path><polygon fill="#aec3ff" points="479.74 289.94 573.42 666.02 586.25 717.52 629.88 892.68 1440.53 892.68 1279.7 289.94 479.74 289.94"></polygon><polygon fill="#759be0" points="479.73 289.94 466.75 294.27 612.62 905.77 629.88 892.69 479.73 289.94"></polygon><polygon fill="#759be0" points="612.62 905.77 1418.27 905.77 1440.52 892.69 629.88 892.69 612.62 905.77"></polygon><rect fill="#aec3ff" transform="translate(1965.52 2038.89) rotate(180)" height="8.28" width="174.44" y="1015.3" x="895.54"></rect><polygon opacity=".7" fill="#759be0" points="1025.63 905.76 1024.73 912.1 860.69 945.22 862.94 918.47 864.01 905.76 1025.63 905.76"></polygon><path fill="#94b0ed" d="M1042.21,1015.12c-6.67,.02-135.46,.42-168.48,0-14.39-.18-16.91-12.79-17.03-20.94l163.27-30.7c-1.7,18.7-2.69,30.63-2.7,32.9,0,1.32,.11,2.55,.32,3.7,2.74,14.57,22.11,15.04,24.61,15.04Z"></path><polygon fill="#94b0ed" points="985.98 770.67 629.88 892.69 586.25 717.52 985.98 770.67"></polygon><polygon fill="#d2e0ff" points="479.73 289.94 1279.7 289.94 1408.51 774.36 600.45 774.36 479.73 289.94"></polygon><polygon fill="#94b0ed" points="1408.96 774.35 1402.26 774.35 1347.42 565.25 1276.93 296.43 489.69 296.43 608.94 774.35 600.42 774.44 479.74 289.95 1282.47 289.25 1283.17 291.93 1353.64 562.18 1408.96 774.35"></polygon><polygon fill="#aec3ff" points="1410.17 779.02 1403.71 779.89 1347.42 565.25 1353.64 562.18 1410.17 779.02"></polygon></g><g><path fill="#163560" d="M282.02,584.52c-1.33-4.01,18.19,5.23,41.45-2.56,20.05-6.71,1.97-19.8,7.08-36.39,3.64-11.81,2.49-43.55-28.5-44.82,0,0-7.45-4.51-18.21-.94-24.48,8.12-75.38,90.5-1.82,84.71Z"></path><path fill="#f78248" d="M315.98,654.19s2.94,5.83,8.28,12.52c6.44,8.06,40.22-11.07,37.31-12.52-2.91-1.45-19.89-50.33-23.93-56.47-4.04-6.14-17.82-9.33-17.82-9.33l-3.85,65.8Z"></path><path fill="#1f447f" d="M201.97,983.84s-9.32,8.5-7.51,14.55c1.82,6.04,10.23,10.07,11.37,17.46,1.14,7.38,5.69,11.41,9.78,11.41h19.52s3.01-5.2-4.26-6.76c-7.28-1.57-10.02-10.25-9.57-18.3,.45-8.06-.68-18.8-.68-18.8l-15.47-3.58-3.18,4.03Z"></path><path fill="#1c3154" d="M280.89,987.45s-3.35,36.03,.74,38.04l52.39-.11s0-6.04-8.41-7.38c-8.42-1.34-23.2-6.27-25.7-17.23-2.5-10.97-19.02-13.32-19.02-13.32Z"></path><path fill="#f78248" d="M240.59,629.89s-.78,11,0,24.2c.52,8.75,9.38,20.47,10.63,23.37,3.15,7.27,6.71,8.45,6.71,8.45l27.51,6.74,9.67,2.37,30.5-9.1s13.89-38.75,8.31-60.56c-5.58-21.81-14.1-36.96-14.1-36.96,0,0-20.73-4.66-57.29-2.07l-21.94,43.57Z"></path><path fill="#dd6c3a" d="M237.97,654.4c.52,8.75,12,20.16,13.25,23.06,3.15,7.27,6.71,8.45,6.71,8.45l27.51,6.74,4.97-14.23s-40.19-10.55-33.73-47.73l-18.71,23.7Z"></path><path fill="#233862" d="M323.67,691.79s15.1,46.98,16.07,62.98c.97,16-28.87,227.24-30.07,234.61-1.13,6.95-9.76,11.38-9.76,11.38,0,0-3.97,2.34-9.64,.74-7.86-2.22-10.35-4.88-10.35-4.88,0,0-11.76-150.66-4.48-204.48,7.28-53.82,7.36-100.36,7.36-100.36h40.87Z"></path><path fill="#2a4e96" d="M259.68,690.39s-23.04,30.89-25.19,51.78c-2.15,20.88-3.37,94.24-7.95,114.6-4.58,20.36-21.39,59.54-21.39,123.04,0,0,1.75,3.64,7.14,5.58,1.73,.62,4.04,1.22,6.28,1.74,4.45,1.02,9.02-1.15,11.05-5.24,11.37-22.87,47.57-96.64,49.43-111.95,1.31-10.84,12.75-82.55,37.68-124.64,5.99-10.1-3.67-50.28-3.67-50.28l-53.39-4.62Z"></path><path fill="#233862" d="M326.09,684.54s-6.06,4.79-18.11,5.04c-14.39,.29-50.04-3.67-50.04-3.67,0,0-1.58,4.42-1.52,9.09,0,0,43.54,10.98,68.77,1.6,0,0,3.25-6.12,.9-12.07Z"></path><path fill="#fff" d="M304.86,694.54c0-4.1,2.94-7.43,6.57-7.43s6.57,3.33,6.57,7.43-2.95,7.42-6.57,7.42-6.57-3.33-6.57-7.42Zm2.18,0c0,2.9,1.97,5.25,4.39,5.25s4.39-2.36,4.39-5.25-1.97-5.25-4.39-5.25-4.39,2.36-4.39,5.25Z"></path><polygon fill="#6980e2" points="279.97 715.48 345.42 716.09 377.62 640.45 312.17 639.84 279.97 715.48"></polygon><path fill="#ffb27d" d="M288.53,681.3l4.8-5.89s3.25-2.89,5.6-3.39c2.36-.49,7.33-3.36,7.81-2.55,.48,.81-3.82,6.57-3.82,6.57l-.22,.03c4.94,3.71,17.42,.43,18.96,1.95,1.87,1.84-2.57,5.81-4.95,8.04-2.38,2.23-9.18,5.95-14.49,4.29-3.88-1.21-9.98-2.43-9.98-2.43l-3.71-6.62Z"></path><path fill="#ffb27d" d="M372.7,653.76s-4.11-4.67-6.73-2.43c-2.62,2.24,.69,13.27,3.18,12.14,2.49-1.12,4.99-8.35,3.55-9.72Z"></path><path fill="#f78248" d="M262.53,586.32s-18.74,2.07-32.18,26.48c-10.6,19.25-28.73,54.74-21.89,64.77,3,4.4,31.78,20.06,87.3,11.11,0,0-.87-7.01-5.35-10.25,0,0-46.72-14.99-46.64-17.97,.15-5.64,6.31-10.51,32.41-36.6,7.09-7.09-13.65-37.53-13.65-37.53Z"></path><path fill="#ffb27d" d="M276.95,587.31c-.64-.86,.18-3.61,1.21-8.74,.93-4.64,2.51-11.82,2.48-19.89l1.38,.23,23.22,3.9s-.53,6.2-.54,12.05v.15c-.03,5.08,1.37,12.75-.34,13.75-8.8,5.15-24.93,1.87-27.41-1.45Z"></path><path fill="#e8945b" d="M305.24,562.82s-.46,8.75-.48,14.59c-12.99-.31-19.93-12.92-22.74-18.5l23.22,3.9Z"></path><path fill="#ffb27d" d="M306.65,573.25s-30.44-4.33-27.45-23.24c2.99-18.9,1.08-32.19,20.64-30.23,19.56,1.97,22.19,9.78,22.72,16.33,.54,6.55-7.92,37.77-15.92,37.13Z"></path><path fill="#163560" d="M313.74,521.53s-11.85,20.85-25.13,22.1c-13.28,1.25-18.27-3.05-18.27-3.05,0,0,11.02-6.21,15.22-19.45,0,0,23.59-11.15,28.18,.4Z"></path><path fill="#163560" d="M311.39,523s5.8,3.28,7.62,8.18c1.78,4.79,2.97,10.94,1.34,18,0,0,8.67-14.07,2.99-23.72-6.02-10.23-11.94-2.47-11.94-2.47Z"></path></g><path fill="#d5dffc" d="M45,795.52l16.54-1.86c1.38-.14,2.72,.5,3.47,1.66,.96,1.49,1.98,2.94,3.08,4.36,2.03,2.65,4.21,5.1,6.55,7.31,1.09,1.04,1.46,2.61,.9,4l-6.34,16.18c-.69,1.72,.07,3.7,1.76,4.53l14.25,7.05c1.62,.79,3.55,.25,4.53-1.25l8.61-13.49c.81-1.33,2.42-1.95,3.97-1.53,6.54,1.73,13.36,2.4,20.17,2.01,1.64-.1,3.17,.97,3.67,2.54l2.92,9.29c.57,1.76,2.37,2.85,4.2,2.49l15.47-3.13c.32-.06,.62-.15,.89-.3,1.34-.64,2.17-2.1,1.98-3.62l-1.38-12.35-.34-3.01c2.57-1.45,5.1-3.11,7.5-4.95,3.24-2.49,6.19-5.23,8.8-8.15,1-1.11,2.57-1.51,3.96-.95l13.04,5.12c1.79,.69,3.8-.08,4.64-1.8l5.4-10.88,1.54-3.12c.85-1.7,.28-3.78-1.32-4.79l-11.27-7.2c-1.32-.82-1.97-2.38-1.59-3.86,1.05-4.44,1.64-8.99,1.72-13.53,.04-.4,.03-.76,.03-1.15,0-.13,0-.26,.02-.38,.14-1.46,1.15-2.67,2.56-3.11l15.08-4.77c.17-.04,.34-.12,.49-.19,1.47-.71,2.31-2.36,1.99-4l-3.1-15.42c-.38-1.86-2.1-3.12-4.01-2.92l-17.25,1.95c-1.46,.18-2.86-.57-3.56-1.87-1.56-2.83-3.36-5.59-5.4-8.26-1.08-1.41-2.21-2.76-3.39-4.06-.95-1.06-1.23-2.56-.71-3.87l6.09-15.56c.68-1.71-.07-3.67-1.74-4.5l-14.1-6.95c-1.7-.84-3.77-.29-4.81,1.33l-6.82,10.67c-.91,1.43-2.66,2.04-4.26,1.51-6.27-2.17-12.83-3.33-19.46-3.49-1.57-.01-2.96-1.05-3.43-2.56l-4.3-13.58c-.58-1.82-2.44-2.91-4.31-2.55l-15.37,3.08c-1.85,.36-3.1,2.1-2.88,3.94l.07,.72,1.61,14.34c.17,1.54-.61,2.99-1.99,3.7h-.01c-3.29,1.71-6.49,3.73-9.54,6.07-1.63,1.25-3.16,2.56-4.65,3.93-1.02,.97-2.5,1.25-3.8,.74l-13.24-5.2c-1.81-.72-3.87,.09-4.72,1.81l-6.94,14.03c-.2,.4-.3,.83-.36,1.23-.14,1.34,.48,2.72,1.67,3.48l9.02,5.73c1.1,.71,1.74,1.96,1.68,3.24-.02,.33-.08,.68-.19,1.01-2.74,8.05-3.84,16.55-3.25,25.04,.12,1.44-.68,2.78-1.93,3.45-.18,.09-.37,.17-.57,.23l-12.21,3.85c-1.77,.56-2.84,2.36-2.48,4.19l.07,.36,3,15.03c.4,1.89,2.15,3.16,4.07,2.94Zm105.79-46.93c.94,2.36,1.71,4.91,2.24,7.63,1.01,5.19-.04,13.39-2.39,18.14-.25,.51-.51,1.01-.77,1.5-16.18,30.02-58.59,24.05-65.58-9.82-.91-4.43-.34-10.88,1.24-15.82,.38-1.14,.8-2.21,1.27-3.12,2.16-4.31,4.84-7.92,7.89-10.85,17.42-16.72,46.52-11.24,56.09,12.34Z"></path><path fill="#d5dffc" d="M419.54,205.33l13.92-1.57c1.16-.12,2.29,.42,2.92,1.4,.81,1.25,1.67,2.47,2.59,3.67,1.71,2.23,3.54,4.29,5.51,6.15,.92,.87,1.23,2.2,.75,3.37l-5.34,13.62c-.58,1.45,.06,3.11,1.48,3.81l11.99,5.94c1.36,.67,2.99,.21,3.81-1.06l7.25-11.35c.68-1.12,2.04-1.64,3.34-1.29,5.51,1.45,11.24,2.02,16.98,1.69,1.38-.08,2.67,.82,3.09,2.14l2.46,7.82c.48,1.48,1.99,2.4,3.54,2.1l13.02-2.63c.27-.05,.52-.13,.75-.25,1.13-.54,1.82-1.76,1.67-3.05l-1.16-10.39-.29-2.53c2.17-1.22,4.29-2.62,6.31-4.17,2.73-2.09,5.21-4.4,7.41-6.86,.84-.93,2.16-1.27,3.33-.8l10.98,4.31c1.5,.58,3.2-.07,3.9-1.51l4.54-9.16,1.3-2.63c.71-1.43,.23-3.18-1.11-4.03l-9.49-6.06c-1.11-.69-1.65-2-1.34-3.25,.89-3.74,1.38-7.56,1.45-11.39,.03-.33,.03-.64,.03-.97,0-.11,0-.22,.02-.32,.12-1.23,.97-2.25,2.15-2.61l12.69-4.02c.15-.03,.29-.1,.41-.16,1.23-.6,1.94-1.99,1.67-3.36l-2.61-12.98c-.32-1.57-1.77-2.63-3.37-2.46l-14.52,1.64c-1.23,.15-2.41-.48-3-1.57-1.31-2.38-2.82-4.71-4.54-6.95-.91-1.19-1.86-2.33-2.85-3.41-.8-.89-1.03-2.15-.6-3.26l5.13-13.09c.57-1.44-.06-3.09-1.46-3.79l-11.87-5.85c-1.43-.71-3.17-.24-4.05,1.12l-5.74,8.98c-.77,1.21-2.24,1.72-3.59,1.27-5.27-1.83-10.8-2.8-16.38-2.94-1.32-.01-2.49-.88-2.89-2.16l-3.62-11.43c-.48-1.53-2.05-2.45-3.63-2.14l-12.94,2.59c-1.56,.31-2.61,1.77-2.42,3.32l.06,.61,1.35,12.07c.15,1.29-.52,2.51-1.68,3.11h-.01c-2.77,1.44-5.46,3.14-8.03,5.11-1.37,1.05-2.66,2.16-3.91,3.31-.86,.81-2.1,1.05-3.2,.62l-11.14-4.37c-1.52-.6-3.26,.07-3.97,1.52l-5.84,11.81c-.16,.34-.26,.7-.3,1.04-.12,1.13,.41,2.29,1.4,2.93l7.59,4.82c.92,.6,1.46,1.65,1.42,2.72-.02,.28-.06,.57-.16,.85-2.31,6.78-3.23,13.93-2.73,21.08,.1,1.21-.57,2.34-1.63,2.9-.15,.08-.31,.14-.48,.2l-10.28,3.24c-1.49,.47-2.39,1.98-2.09,3.53l.06,.3,2.53,12.65c.34,1.59,1.81,2.66,3.42,2.48Zm89.04-39.5c.8,1.99,1.44,4.13,1.89,6.42,.85,4.37-.04,11.27-2.01,15.27-.21,.43-.43,.85-.65,1.27-13.62,25.26-49.32,20.24-55.2-8.27-.76-3.73-.29-9.15,1.05-13.31,.32-.96,.67-1.86,1.07-2.63,1.82-3.63,4.07-6.66,6.64-9.14,14.66-14.07,39.16-9.46,47.21,10.38Z"></path><g><path fill="#8c9df4" d="M1271.97,359.26v447.49c0,16.36-12.54,29.62-28.02,29.62H451.78c-15.47,0-28.02-13.26-28.02-29.62V359.26c0-16.36,12.54-29.62,28.02-29.62h792.18c15.47,0,28.02,13.26,28.02,29.62Z"></path><path fill="#6980e2" d="M1271.97,357.64v20.51H423.76v-20.51c0-15.46,12.54-28,28.02-28h792.18c15.47,0,28.02,12.54,28.02,28Z"></path><g><path fill="#c0d4ff" d="M756.96,601.31c13.24,16.95-2.61,43.02,6.52,62.41,1.75,3.71,4.36,7,5.81,10.83,2.41,6.33,1.41,13.4,2.9,20,1.49,6.59,7.48,13.38,14.11,11.61,5.74-1.53,8.05-8.42,7.89-14.27-.16-5.84-1.81-11.83-.1-17.43,2.08-6.8,9.05-11.51,16.25-12.15,7.19-.64,14.39,2.31,19.93,6.86,6.08,5,12.73,12.52,20.18,9.86,7.14-2.54,7.72-12.68,4.23-19.31-3.5-6.63-9.59-11.83-12.19-18.85-3.27-8.82-.26-18.87,5.04-26.68,5.3-7.81,12.69-13.98,19.35-20.71,2.28-2.3,4.59-4.9,4.98-8.09,.39-3.19-2.16-6.87-5.4-6.45-2.18,.29-3.7,2.18-5.39,3.58-7.29,6.04-19.37,2.5-24.91-5.13-5.54-7.63-6.01-17.72-5.05-27.05,11.39,2.66,21.72-13.04,32.72-9.09,6.89,2.48,8.79,10.91,10.62,17.9,3.26,12.43,9.48,24.13,11.09,36.87,3.09,24.29-10.54,50.97,1.61,72.33,4.56,8.01,12.22,13.9,20.32,18.47,19.32,10.89,43.95,15.13,63.93,5.45,23.05-11.16,44.9-37.29,45.09-38.86,2.27-19.52-.66-31.38,2.86-37.42,13.27-22.77,52.81-5.94,71.87-4.81,52.63,3.14,49.6-30.82,49.42-46.53-.42-37.96-7.79-44.91-46.09-49.65-20.05-2.48-40.72,1.57-60.45-2.73-17.28-3.76-32.47-13.63-48.98-19.89-30.34-11.5-65.47-10.21-94.85,3.49-6.34,2.96-12.56,6.51-19.49,7.65-6.93,1.14-14.96-.78-18.66-6.65-4.4-6.97-1.02-16.18,3.71-22.94,4.73-6.76,10.92-13.03,12.49-21.09,2.18-11.19-5.91-22.61-16.56-27.1-10.65-4.5-23.02-3.21-33.97,.5-20.02,6.78-36.51,20.95-51.36,35.8-17.59,17.59-34.44,38.27-36.9,62.83-.97,9.66,.37,19.66-3.01,28.97-2.53,6.97-8.75,12.2-6.32,19.94,4.65,14.83,27.8,16.07,36.74,27.51Z"></path><path fill="#c0d4ff" d="M1065.49,481.76c3.48,2.71,6.96,5.42,10.43,8.12,2.4,1.87,4.87,3.77,7.49,4.25,5.52,1.01,10.59-5.65,10.3-13.54-.29-7.89-5.86-15.3-11.34-15.07-3.39,.15-6.8,2.71-9.98,.47-6.64-4.67-11.14-27.29-16.95-12-4.32,11.35,3.05,22.5,10.05,27.76Z"></path><path fill="#c0d4ff" d="M655.11,513.68c7.29,4.63,14.58,9.25,21.87,13.88,4.04,2.57,8.67,6.69,6.98,11.12-2.1,5.52-10.28,3.83-16.22,4.62-8.16,1.08-14.29,9.92-12.35,17.78,1.44,5.84,6.24,12.68,1.87,16.88-3.95,3.8-10.91,.23-15.99,2.37-3.01,1.27-4.9,4.38-7.92,5.63-2.58,1.07-5.67,.65-8.11,1.99-3.04,1.67-4.1,5.47-6.64,7.81-7.69,7.12-21.5-3.2-30.5,2.24-6.86,4.14-5.71,14.9-.35,20.8,5.36,5.91,13.29,8.74,20.1,12.97,6.8,4.23,13.09,11.42,11.61,19.2-1.53,8.05-10.97,15.06-7.59,22.55,1.04,2.31,3.14,3.95,4.79,5.88,4.26,4.99,5.42,12.22,3.45,18.44-1.96,6.23-6.83,11.39-12.75,14.32-3.76,1.86-7.91,2.87-11.68,4.73-10.22,5.02-16.34,15.41-21.76,25.29-6.73,12.28-13.36,24.94-15.6,38.72-.74,4.56-1.45,9.93-5.56,12.18-4.82,2.64-11-1.24-13.33-6.16-2.33-4.91-2.25-10.57-3.57-15.83-2.48-9.91-9.84-18.11-12.41-28-6.16-23.65,16.45-47.15,12.14-71.19-.9-5.02-2.96-9.79-3.74-14.83-1.56-9.99,2.32-20.65,9.99-27.39,8.25-7.26,20.99-10.96,24.3-21.35,3.65-11.46-6.96-23.28-5.11-35.15,.59-3.8,2.45-7.33,2.99-11.14,.62-4.38-.55-8.8-1.81-13.05-3.55-11.94-7.84-25.29-1.89-36.27,3.6-6.64,10.36-11.02,17.24-14.31,16-7.65,33.84-10.61,51.53-9.19,7.41,.6,14.28-1.49,15.27,6.76,1.08,8.91,2.42,12.39,10.75,17.68Z"></path><path fill="#c0d4ff" d="M706.71,452.19c3.91-2.74,8.62-4.15,12.8-6.46,4.19-2.31,8.11-6.03,8.48-10.74,.29-3.67-1.71-7.24-4.48-9.72-2.77-2.48-6.25-4.04-9.72-5.44-6.8-2.75-13.79-5.07-20.9-6.92-3.93-1.02-8.15-1.9-12-.62-3.42,1.14-6.05,3.82-8.43,6.49-3.31,3.71-6.49,7.72-7.85,12.46-1.95,6.8,.13,14.07,2.94,20.57,2.32,5.36,16.68,33.86,24.07,30.68,2.89-1.25,3.96-13.59,5.13-16.55,2.12-5.35,5.14-10.36,9.98-13.74Z"></path><path fill="#c0d4ff" d="M1126.36,714.21c6.09-4.26,13.4-6.46,19.92-10.06,6.51-3.6,12.61-9.38,13.19-16.71,.45-5.71-2.66-11.27-6.97-15.12-4.31-3.86-9.73-6.28-15.12-8.46-10.58-4.28-21.46-7.88-32.52-10.76-6.11-1.59-12.68-2.96-18.67-.96-5.32,1.77-9.41,5.94-13.11,10.09-5.14,5.77-10.1,12.01-12.22,19.39-3.03,10.57,.19,21.89,4.57,32,3.6,8.33,25.95,52.68,37.44,47.72,4.5-1.94,6.15-21.15,7.98-25.75,3.3-8.32,7.99-16.12,15.53-21.38Z"></path></g><g><path fill="#ebf3fa" d="M456.96,356.55c0-3.07,2.49-5.56,5.57-5.56s5.57,2.49,5.57,5.56-2.49,5.56-5.57,5.56-5.57-2.49-5.57-5.56Z"></path><circle fill="#ebf3fa" r="5.57" cy="356.55" cx="492.45"></circle><circle fill="#ebf3fa" r="5.57" cy="356.55" cx="522.38"></circle></g><g><path fill="#f78248" d="M710.09,495.94c0,19.17,32.3,49.82,32.3,49.82,0,0,32.3-30.64,32.3-49.82s-14.46-34.72-32.3-34.72-32.3,15.55-32.3,34.72Zm13.27-2.04c0-10.48,8.55-19.02,19.03-19.02s19.03,8.54,19.03,19.02-8.5,19.02-19.03,19.02-19.03-8.49-19.03-19.02Z"></path><path fill="#ebf3fa" d="M723.36,493.91c0-10.51,8.52-19.02,19.03-19.02s19.03,8.52,19.03,19.02-8.52,19.02-19.03,19.02-19.03-8.52-19.03-19.02Z"></path></g><g><path fill="#f78248" d="M547.79,675.46c0,13.66,23.02,35.49,23.02,35.49,0,0,23.02-21.84,23.02-35.49s-10.3-24.74-23.02-24.74-23.02,11.08-23.02,24.74Zm9.45-1.45c0-7.47,6.09-13.55,13.56-13.55s13.56,6.09,13.56,13.55-6.05,13.55-13.56,13.55-13.56-6.05-13.56-13.55Z"></path><path fill="#ebf3fa" d="M557.24,674.01c0-7.49,6.07-13.55,13.56-13.55s13.56,6.07,13.56,13.55-6.07,13.55-13.56,13.55-13.56-6.07-13.56-13.55Z"></path></g></g><g><path fill="#d5dffc" d="M388.26,422.9h123.02c17.23,0,31.22,13.99,31.22,31.22v127.55c0,17.23-13.99,31.22-31.22,31.22h-123.02c-17.23,0-31.22-13.99-31.22-31.22v-127.55c0-17.23,13.99-31.22,31.22-31.22Z"></path><g><path fill="#2a4e96" d="M505.78,511.71c0,30.92-25.07,55.97-56,55.97s-56-25.05-56-55.97,25.07-55.97,56-55.97c3.52,0,6.96,.32,10.3,.95-6.99,25.46-16.27,59.18-16.89,61.28,1.15-1.82,35.21-17.07,58.47-27.36,2.66,6.51,4.12,13.64,4.12,21.1Z"></path><path fill="#f78248" d="M504.77,484.51c-20.54,9.04-54.56,24.2-55.65,25.92,.59-2,10-36.19,16.31-59.1,17.46,4.79,31.81,17.08,39.35,33.19Z"></path></g></g><g><path fill="#d5dffc" d="M628.61,134.58h163.83c21.22,0,38.44,17.23,38.44,38.44v145.09c0,21.22-17.23,38.44-38.44,38.44h-163.83c-21.22,0-38.44-17.23-38.44-38.44V173.02c0-21.22,17.23-38.44,38.44-38.44Z"></path><g><path fill="#8c9df4" d="M803.31,319.85h-186.26v-59.23h186.26v59.23Zm-183.97-2.28h181.69v-54.66h-181.69v54.66Z"></path><g><rect fill="#8c9df4" height="4.69" width="72.05" y="276.54" x="630.55"></rect><rect fill="#8c9df4" height="4.69" width="51.12" y="276.54" x="710.19"></rect><rect fill="#8c9df4" height="4.69" width="39.76" y="289.94" x="630.55"></rect><rect fill="#8c9df4" height="4.69" width="51.12" y="289.94" x="677.04"></rect><rect fill="#8c9df4" height="4.69" width="51.12" y="289.94" x="733.45"></rect></g></g><g><rect fill="#2a4e96" height="26.99" width="19.43" y="215.55" x="618.2"></rect><rect fill="#2a4e96" height="44.88" width="19.43" y="197.66" x="651.48"></rect><rect fill="#f78248" height="59.54" width="19.42" y="183" x="684.75"></rect><rect fill="#2a4e96" height="47.64" width="19.43" y="194.89" x="718.03"></rect><rect fill="#2a4e96" height="73" width="19.43" y="169.54" x="751.3"></rect><rect fill="#f78248" height="86.02" width="19.43" y="156.51" x="784.58"></rect></g></g><g><path fill="#2a4e96" d="M1198.41,454.82h220.08c20.84,0,37.76,16.92,37.76,37.76v98.87c0,20.84-16.92,37.76-37.76,37.76h-220.08c-20.84,0-37.76-16.92-37.76-37.76v-98.87c0-20.84,16.92-37.76,37.76-37.76Z"></path><g><path fill="#c0d4ff" d="M1294.54,598.39h-109.29v-34.76h109.29v34.76Zm-107.95-1.34h106.61v-32.07h-106.61v32.07Z"></path><g><rect fill="#c0d4ff" height="2.75" width="42.28" y="572.98" x="1193.16"></rect><rect fill="#c0d4ff" height="2.75" width="30" y="572.98" x="1239.89"></rect><rect fill="#c0d4ff" height="2.75" width="23.33" y="580.84" x="1193.16"></rect><rect fill="#c0d4ff" height="2.75" width="30" y="580.84" x="1220.44"></rect><rect fill="#c0d4ff" height="2.75" width="30" y="580.84" x="1253.55"></rect></g></g><g><path fill="#c0d4ff" d="M1424.86,598.39h-109.29v-34.76h109.29v34.76Zm-107.95-1.34h106.61v-32.07h-106.61v32.07Z"></path><g><rect fill="#c0d4ff" height="2.75" width="42.28" y="572.98" x="1323.49"></rect><rect fill="#c0d4ff" height="2.75" width="30" y="572.98" x="1370.22"></rect><rect fill="#c0d4ff" height="2.75" width="23.33" y="580.84" x="1323.49"></rect><rect fill="#c0d4ff" height="2.75" width="30" y="580.84" x="1350.77"></rect><rect fill="#c0d4ff" height="2.75" width="30" y="580.84" x="1383.87"></rect></g></g><g><path fill="#c0d4ff" d="M1431.65,549.85h-246.41v-19.97h246.41v19.97Zm-244.07-2.34h241.73v-15.3h-241.73v15.3Z"></path><rect fill="#c0d4ff" height="17.63" width="191.27" y="531.05" x="1186.42"></rect></g><g><path fill="#c0d4ff" d="M1431.65,510.15h-246.41v-19.97h246.41v19.97Zm-244.07-2.34h241.73v-15.3h-241.73v15.3Z"></path><rect fill="#f99746" height="19.97" width="128.13" y="490.18" x="1185.25"></rect></g></g><g><g><path fill="#ffb27d" d="M1072.24,420.4c-1.12,1.28-1.26,2.71-.71,4.24,0,0,0,.02,.01,.02,1.02,2.83,4.41,5.98,8.33,9.14,.5,.41,.95,.77,1.34,1.12,.1,.09,.2,.18,.3,.27,.08,.07,.16,.14,.23,.21,3.66,3.38,2.28,4.15,8.87,11,7.5,7.8,12.67,7.94,14.14,7.23,1.24-.61-1.28-4.75-4.08-9.4-.14-.22-.27-.45-.41-.68-.37-.62-.74-1.25-1.11-1.87-3.28-5.6-2.44-8.23-1.66-16.56,.63-6.77,10.54-37.82,10.54-37.82l-14.38-2.48s-4.33,24.73-9.1,28.54c-2.55,2.03-5.41,2.06-7.86,3.56-.17,.1-.34,.21-.51,.32-1.39,.92-2.81,1.88-3.94,3.16Z"></path><path fill="#233862" d="M1072.24,420.4c-1.12,1.28-1.26,2.71-.71,4.24,0,0,0,.02,.01,.02,1.25,2.82,4.55,5.97,8.35,9.11,.5,.41,.93,.79,1.32,1.14,.1,.09,.2,.18,.3,.27,.08,.07,.16,.14,.23,.21,3.66,3.38,2.28,4.15,8.87,11,7.5,7.8,12.67,7.94,14.14,7.23,1.24-.61-1.28-4.75-4.08-9.4-1.46-.53-8.25-3.29-13.38-9.85-4.35-5.55-7.31-12.63-10.27-16.98-.33-.06-.52-.1-.85-.16-1.39,.92-2.81,1.88-3.94,3.16Z"></path><path fill="#ffb27d" d="M1188.21,411.43c.89,4.44,7.22,3.7,14.28,1.97,7.07-1.73,5.39,.33,15.45-.79,10.06-1.11,13.11-4.86,13.42-6.36,.28-1.33-4.7-1.79-10.03-2.41-.67-.08-1.34-.16-2.02-.24-6.02-.75-10.43-4.64-15.9-7.83-5.18-3.02-12.91-15.33-12.91-15.33l-13.8,1.09s7.24,10.99,10.04,15.77c1.65,2.81,1.56,6.53,1.35,9.4-.11,1.56-.21,3.15,.11,4.72Z"></path><path fill="#233862" d="M1202.49,413.4c7.07-1.73,5.39,.33,15.45-.79,10.06-1.11,13.11-4.86,13.42-6.36,.28-1.33-4.7-1.79-10.03-2.41l-.05,.1s-6.03,4.28-14.41,4.48c-6.83,.17-14.06-1.79-18.77-1.71-.11,1.56-.21,3.15,.11,4.72,.89,4.44,7.22,3.7,14.28,1.97Z"></path><path fill="#dd6c3a" d="M1135.33,323.25l-12.9,34.69-16.84,45.29s-4.57,.44-8.95-.82c-4.03-1.16-8.65-4.21-8.65-4.21,0,0,4.68-48.63,13.4-76.55,2.23-7.16,4.74-12.96,7.5-16.22,13.52-15.97,26.43,17.82,26.43,17.82Z"></path><path fill="#f78248" d="M1122.21,268.16c-7.34-2.37-26.5-.04-47.28,3.72-5.74,1.04-11.53-1.58-14.55-6.57h0l-52.3-4.08s-17.26,38.25-7.81,62.61c1.39,3.58,4.44,5.82,9.14,5.89h0s31.6,.04,41.71,.04c26.01,0,55.04-17.87,58.8-18.62,6.15-1.23,8.61,11.06,14.75,23.96,6.15,12.9,57.79,57.14,57.79,57.14,0,0,7.94,.08,11.21-1.15,3.53-1.32,4.82-3.04,4.82-3.04,0,0-57.22-113.77-76.28-119.91Z"></path><path fill="#152949" d="M1054.82,111.85c-3.88-2.31-7.67-2.66-9.99-2.6-1.61,.05-3.23-.06-4.82-.29-19.96-2.92-31.98,26.05-32.68,34.8-1.29,16.07-9.8,18.52-21.78,28.59-24.01,20.18-16.97,43.64-3.84,52.35,7.88,5.23,21.76,0,21.76,0,.2,.14,37.97-21.11,56.6-31.35,27.92-3.97,5.97-74.82-5.25-81.5Z"></path><path fill="#ffb27d" d="M1044.46,184.62c.08,.05-9.16,3.21-15.34,.47-5.82-2.57-10.22-12.13-10.13-12.13,2.65-.12,5.55-2.43,7.79-17.6l1.13,.4,18.94,6.81s-1.37,6.07-2.26,11.86c-.75,4.86-1.15,9.51-.11,10.19Z"></path><path fill="#ed975d" d="M1046.84,162.57s-.76,3.28-1.86,9.4c-10.88-1.96-15.55-10.33-17.08-16.21l18.94,6.81Z"></path><path fill="#ffb27d" d="M1049.66,168.6s-25.91-3.48-23.5-19.57c2.41-16.09,.7-27.38,17.34-25.84,16.65,1.54,18.93,8.16,19.43,13.73,.5,5.57-6.48,32.17-13.28,31.68Z"></path><path fill="#152949" d="M1061.99,128.1s-16.59,14.29-27.87,15.44c-11.28,1.15-15.56-2.47-15.56-2.47,0,0,6.65-5.52,10.65-14.42,1.18-2.62,3.67-4.43,6.54-4.67,8.06-.7,23.33-1.01,26.23,6.13Z"></path><path fill="#152949" d="M1051.62,126.82s5.55,5.36,7.3,9.34c1.69,3.84,2.19,13.02,.85,16.66,0,0,8.65-16.8,3.75-24.97-5.19-8.66-11.9-1.04-11.9-1.04Z"></path><path fill="#8c9df4" d="M1066.28,222.77c-.78,52.42-.21,41.47-5.95,46.44-1.38,1.2-5.27,1.91-10.39,2.25-16.08,1.07-44.36-1.58-45.43-4.55-3.71-10.28-1.09-13.47-4.19-29.21-.32-1.67-.72-3.48-1.19-5.46-2.58-10.81-5.09-14.49,4.06-31.85,8.3-15.73,16.93-28.49,17.71-28.03,21.91,13,23.67,2.07,23.67,2.07,0,0,22.09,22.77,21.71,48.34Z"></path><path fill="#f78248" d="M1122.43,357.94l-16.84,45.29s-4.57,.44-8.95-.82c-4.03-1.16-8.65-4.21-8.65-4.21,0,0,4.68-48.63,13.4-76.55l21.04,36.28Z"></path><path fill="#8c9df4" d="M1044.58,174.43s22.54,3.82,25.19,13.52c2.65,9.7,11.36,68.57,11.36,68.57,0,0-6.36,6.2-11.65,.91-5.29-5.29-16.66-55.08-16.66-55.08l-8.24-27.92Z"></path><path fill="#707fe5" d="M1049.95,271.46c-16.08,1.07-44.36-1.58-45.43-4.55-3.71-10.28-1.09-13.47-4.19-29.21l7.76-21.83s-1.28,24.31,5.89,30.7c7.17,6.4,29.37,12.34,32.86,17.69,1.68,2.56,2.79,5.14,3.11,7.2Z"></path><path fill="#ffb27d" d="M1031.52,261.24s15.87-3.53,18.43-2.12c2.56,1.41,8.82,6.53,9.6,8.32,.78,1.78-5.7-1.35-7.81-1.92-1.37-.37-4.96,.88-6.74,1.48-7.49,2.49-12.08,1.21-12.08,1.21l-1.4-6.96Z"></path><path fill="#8c9df4" d="M1020.89,172.35s-21.31,1.31-28.68,11.59c-10.38,14.47-30.98,76.15-19.18,84.38,13.29,9.26,60.5,2.42,60.5,2.42,0,0,1.57-7.34-.61-10.89-2.19-3.55-37.71-9.28-39.35-10.92-1.64-1.64,20.49-31.95,20.49-36.86s6.82-39.72,6.82-39.72Z"></path><path fill="#ffb27d" d="M1050.71,263.53s3.32,4.29,4.42,4.8c1.09,.51,1.79,.38,1.79,.38l-2.24-4.03-3.97-1.15Z"></path><path fill="#ffb27d" d="M1049.95,259.11l9.67,4.69s-.41,.67-1.6,.62c-1.19-.05-4.19-1.15-4.19-1.15l-3.87-4.16Z"></path></g><g><polygon fill="#152949" points="1132.49 270.14 1031.52 270.14 1031.52 272.37 1131.6 272.37 1132.49 270.14"></polygon><polygon fill="#152949" points="1055.13 272.37 1131.6 272.37 1154.6 215.2 1078.25 215.2 1055.13 272.37"></polygon><path fill="#ebf3fa" d="M1112.29,243.79c.58-2.01-.59-3.64-2.6-3.64s-4.11,1.63-4.68,3.64c-.58,2.01,.59,3.64,2.6,3.64s4.11-1.63,4.68-3.64Z"></path></g></g><g><path fill="#f78248" d="M852.49,460.32c0,28.4,47.85,73.78,47.85,73.78,0,0,47.85-45.39,47.85-73.78s-21.42-51.42-47.85-51.42-47.85,23.02-47.85,51.42Zm19.65-3.02c0-15.52,12.66-28.18,28.19-28.18s28.19,12.65,28.19,28.18-12.59,28.17-28.19,28.17-28.19-12.58-28.19-28.17Z"></path><path fill="#ebf3fa" d="M872.14,457.31c0-15.56,12.62-28.17,28.19-28.17s28.19,12.61,28.19,28.17-12.62,28.18-28.19,28.18-28.19-12.62-28.19-28.18Z"></path></g><g><path fill="#ffb27d" d="M918.02,541.47s-1.47-12.79-4.57-17.68c-3.1-4.89-14.82-8.03-15.56-7.31-2.3,2.22,6.78,10.08,7.14,12.97,.36,2.89-4.61,.89-2.22,6.54,2.01,4.77,8.65,10.95,8.65,10.95l6.58-5.47Z"></path><path fill="#dd6c3a" d="M912.37,540.05c4.28-3.35,5.18-3.29,5.18-3.29,0,0,39.54,34.23,43.39,37.28,3.85,3.05,63.23,20.26,63.23,20.26l9.44,48.24s-80.35-38.79-89.96-46.7c-15.87-13.08-35.89-49.69-35.89-49.69,0,0,1.24-3.47,4.6-6.11Z"></path><path fill="#163560" d="M1025.45,1003.71s-.68,16.49-3.85,20.5l-44.07,.25c.31-1.7,.49-5.63,6.59-6.7,7.7-1.34,16.75-6.71,21.41-16.88,4.91-10.7,19.93,2.82,19.93,2.82Z"></path><path fill="#163560" d="M1111.94,1001.33s3.07,21.91-1.1,22.29c-.56,.05-17.76,.33-25.21,.45-8.76,.15-23.16-.16-23.16-.16-1.81,.08-3-1.88-2.08-3.44,1.01-1.71,2.94-3.54,6.62-4.25,7.68-1.48,20.47-7.11,24.95-17.36,4.72-10.78,19.97,2.47,19.97,2.47Z"></path><path fill="#233862" d="M1002.53,776.86s12.25,42.86,47.38,117.28c35.12,74.42,36.64,110.29,36.64,110.29,0,0,5.32,1.88,12.37,1.13,7.63-.81,13.02-4.22,13.02-4.22,0,0-2.28-88.58-18.87-126.14-16.59-37.56-19.97-140.33-19.97-140.33l-70.57,41.99Z"></path><path fill="#2a4e96" d="M982.86,739.98s-.98,66.36,10.51,147.84c11.49,81.48,6.12,119.37,6.12,119.37,0,0,3.05,2.22,12.41,2.18,10.96-.04,16.58-4.57,16.58-4.57,0,0,16.44-81.51,11.73-122.29-4.72-40.78,22.52-139.94,22.52-139.94l-79.87-2.59Z"></path><path fill="#ffb27d" d="M1037.15,584.69l-12.98,9.61-18.76-3.95c.26-1.71,1.5-8.79,2.63-15.21,.07-.38,.14-.76,.2-1.13,.97-5.46,1.8-10.15,1.8-10.15l17.52-8.73,6.53-3.25c-.02,.11-.51,6.06-.57,6.93-1.23,15.41,3.63,25.88,3.63,25.88Z"></path><path fill="#f78248" d="M1074.33,748.18c-4.24,19.4-95.06,10.88-93.88-.96,.05-.39,.28-5.87,.61-13.26,.69-15.98,1.74-40.94,1.87-42.9,0-.03,.01-.07,.01-.1,1.64-16.49,3.2-32.61,3.31-43.14,.09-9.13,1.35-18.47,3.02-26.95,1.55-7.83,3.44-14.93,5.09-20.47,1.16-3.9,3.33-7.33,6.19-10.02,2.04-1.92,4.43-3.46,7.07-4.51,.72-.3,1.46-.55,2.2-.77,10.69-3.1,25.48-6.93,29.48-5.76,10.85,3.19,18.92,22.29,24.63,46.64,10.69,45.57,13.16,109.56,10.38,122.2Z"></path><path fill="#fca56b" d="M1032.21,559.08c-3.85,7.36-18.18,13.72-24.16,16.06,.07-.38,.14-.76,.2-1.13,.97-5.46,1.8-10.15,1.8-10.15l17.52-8.73c3.87-.06,6.23,.92,4.64,3.95Z"></path><path fill="#ffb27d" d="M1001.53,562.84s31.6,9.85,37.44-9.91c5.84-19.76,13.85-31.8-6.08-38.93-19.93-7.13-26.1-.75-29.65,5.38-3.55,6.12-9.78,40.39-1.7,43.46Z"></path><path fill="#163560" d="M1004.48,517.47s2.02,23,6.78,22c4.76-1,9.07-1.74,8.38,5.19-.7,6.93-7.3,14.94,7.37,16.16,14.67,1.23,35.75-36.58,31.72-43.73-11.63-20.65-71.05-24.82-54.25,.37Z"></path><path fill="#dd6c3a" d="M981.06,733.96c.69-15.98,1.74-40.94,1.87-42.9,0-.03,.01-.07,.01-.1l53.65-32.06s2.08,74.84-55.54,75.06Z"></path><path fill="#ffb27d" d="M938.41,666.87s-10.9-7.37-12.97-8.01c-2.07-.64-8.85-1.34-9.16-.8-.31,.53-1.24,2.17-.06,2.72,1.19,.55,2.66,.36,2.22,.75-.44,.39-4.9-1.73-5.93,.54-1.03,2.27-1.93,10.05,3.3,12.41,5.23,2.36,18.14,.23,19.07,.5,7.9,2.29,3.54-8.1,3.54-8.1Z"></path><path fill="#f78248" d="M938.31,664.88s53.22,9.04,57.93,6.75c7.53-3.66-2.92-57.62-2.92-57.62,0,0-.45-12.23,13.85-15.11,12.42-2.51,24.41,6.79,24.41,6.79,0,0,10.9,9.75,9.51,20.56-3.09,23.96-7.89,72.7-23.93,80.17-20.69,9.64-80.54-26.72-80.54-26.72,0,0-1.99-2.44-1.71-6.97,.25-4,3.41-7.84,3.41-7.84Z"></path><path fill="#ffb27d" d="M902.55,535.35s-3.41-6.77-3.95-8.04c-.54-1.27,.78-1,2.09-.29,1.31,.71,3.1,4.64,5.12,4.16,1.61-.38-3.26,4.16-3.26,4.16Z"></path></g><g><path fill="#2b478b" d="M452.52,999.99c0,.97,.06,1.92,.18,2.86,.36,3,1.29,5.81,2.67,8.35,1.08,1.98,2.44,3.78,4.02,5.36,4.25,4.24,10.11,6.86,16.58,6.86h329.83c12.95,0,23.46-10.49,23.46-23.44,0-6.47-2.62-12.33-6.87-16.57-4.24-4.25-10.11-6.87-16.58-6.87H475.97c-12.95,0-23.45,10.49-23.45,23.44Z"></path><path fill="#2b478b" d="M477.68,972.3h113.09c1.98,0,3.6-1.62,3.6-3.6h0c0-1.98-1.62-3.6-3.6-3.6h-113.09c-1.98,0-3.6,1.62-3.6,3.6h0c0,1.98,1.62,3.6,3.6,3.6Z"></path><rect fill="#233862" transform="translate(980.1 1948.85) rotate(180)" height="4.24" width="12.26" y="972.3" x="483.92"></rect><path fill="#233862" d="M455.37,1011.2c1.08,1.98,2.44,3.78,4.02,5.36,4.25,4.24,10.11,6.86,16.58,6.86h69.86v-12.23h-90.47Z"></path><path fill="#f99746" d="M872.91,993.12v13.73c0,1.5-.2,2.96-.58,4.35-1.91,7.05-8.35,12.23-16,12.23h-343.57c-7.65,0-14.09-5.18-16-12.23-.38-1.38-.58-2.84-.58-4.35v-13.73c0-9.15,7.42-16.57,16.58-16.57h343.57c9.16,0,16.58,7.42,16.58,16.57Z"></path><path fill="#ef873a" d="M872.33,1011.2c-1.91,7.05-8.35,12.23-16,12.23h-343.57c-7.65,0-14.09-5.18-16-12.23h375.57Z"></path><g><path fill="#8c9df4" d="M838.79,1000.07c0,7.28,2.65,13.79,6.82,18.1,.1,.1,.18,.19,.28,.29,3.23,3.21,7.32,5.14,11.77,5.14,6.96,0,24.19-10.49,34.88-17.45,5.32-3.47,9.02-6.07,9.02-6.07,0,0-3.7-2.6-9.02-6.07-10.68-6.97-27.92-17.46-34.88-17.46-2.01,0-3.95,.39-5.77,1.12-3.07,1.23-5.8,3.42-7.95,6.27-2.38,3.14-4.06,7.08-4.78,11.47,0,.05-.02,.1-.02,.15-.23,1.45-.35,2.97-.35,4.51Z"></path><path fill="#6980e2" d="M838.79,1000.07c0,7.28,2.65,13.79,6.82,18.1l52.88-18.18-59.35-4.43c-.23,1.45-.35,2.97-.35,4.51Z"></path><path fill="#9fb1ff" d="M843.93,983.93l52.75,14.4-44.8-20.67c-3.07,1.23-5.8,3.42-7.95,6.27Z"></path><path fill="#182d4c" d="M889.1,1000.07c0,2.8,1.44,5.19,3.44,6.07,5.32-3.47,9.02-6.07,9.02-6.07,0,0-3.7-2.6-9.02-6.07-2.01,.88-3.44,3.26-3.44,6.07Z"></path></g></g><rect fill="#2e3552" ry="1.69" rx="1.69" height="4.41" width="1532.99" y="1023.59" x="54.74"></rect></g></g></g></svg>